RobotoExtremo-opszmax-wghtmin.ufo
<glyph name="percent" format="2">
  <advance width="1159"/>
  <unicode hex="0025"/>
  <outline>
    <contour>
      <point x="90" y="985" type="line" smooth="yes"/>
      <point x="90" y="850"/>
      <point x="147" y="660"/>
      <point x="246" y="660" type="qcurve" smooth="yes"/>
      <point x="349" y="660"/>
      <point x="405" y="850"/>
      <point x="405" y="985" type="qcurve" smooth="yes"/>
      <point x="405" y="1151" type="line" smooth="yes"/>
      <point x="405" y="1305"/>
      <point x="349" y="1476"/>
      <point x="246" y="1476" type="qcurve" smooth="yes"/>
      <point x="147" y="1476"/>
      <point x="90" y="1305"/>
      <point x="90" y="1151" type="qcurve" smooth="yes"/>
    </contour>
    <contour>
      <point x="100" y="981" type="qcurve" smooth="yes"/>
      <point x="100" y="1155" type="line" smooth="yes"/>
      <point x="100" y="1301"/>
      <point x="154" y="1468"/>
      <point x="246" y="1468" type="qcurve" smooth="yes"/>
      <point x="346" y="1468"/>
      <point x="395" y="1301"/>
      <point x="395" y="1155" type="qcurve" smooth="yes"/>
      <point x="395" y="981" type="line" smooth="yes"/>
      <point x="395" y="856"/>
      <point x="346" y="668"/>
      <point x="246" y="668" type="qcurve" smooth="yes"/>
      <point x="154" y="668"/>
      <point x="100" y="856"/>
    </contour>
    <contour>
      <point x="149" y="18" type="line"/>
      <point x="156" y="13" type="line"/>
      <point x="1014" y="1437" type="line"/>
      <point x="1005" y="1440" type="line"/>
    </contour>
    <contour>
      <point x="754" y="304" type="line" smooth="yes"/>
      <point x="754" y="169"/>
      <point x="810" y="-21"/>
      <point x="910" y="-21" type="qcurve" smooth="yes"/>
      <point x="1013" y="-21"/>
      <point x="1069" y="169"/>
      <point x="1069" y="308" type="qcurve" smooth="yes"/>
      <point x="1069" y="470" type="line" smooth="yes"/>
      <point x="1069" y="624"/>
      <point x="1011" y="795"/>
      <point x="910" y="795" type="qcurve" smooth="yes"/>
      <point x="809" y="795"/>
      <point x="754" y="624"/>
      <point x="754" y="470" type="qcurve" smooth="yes"/>
    </contour>
    <contour>
      <point x="764" y="300" type="qcurve" smooth="yes"/>
      <point x="764" y="474" type="line" smooth="yes"/>
      <point x="764" y="620"/>
      <point x="816" y="787"/>
      <point x="910" y="787" type="qcurve" smooth="yes"/>
      <point x="1008" y="787"/>
      <point x="1059" y="620"/>
      <point x="1059" y="471" type="qcurve" smooth="yes"/>
      <point x="1059" y="300" type="line" smooth="yes"/>
      <point x="1059" y="174"/>
      <point x="1008" y="-13"/>
      <point x="910" y="-13" type="qcurve" smooth="yes"/>
      <point x="817" y="-13"/>
      <point x="764" y="174"/>
    </contour>
  </outline>
</glyph>
<glyph name="comma" format="2">
  <advance width="452"/>
  <unicode hex="002C"/>
  <outline>
    <contour>
      <point x="150" y="-145" type="qcurve"/>
      <point x="159" y="-151" type="line"/>
      <point x="201.0" y="-97.0"/>
      <point x="234" y="6"/>
      <point x="228" y="105" type="qcurve" smooth="yes"/>
      <point x="226" y="137" type="line"/>
      <point x="213" y="136" type="line"/>
      <point x="215" y="103" type="line" smooth="yes"/>
      <point x="221" y="8"/>
      <point x="189" y="-94"/>
    </contour>
  </outline>
</glyph>
<glyph name="zero" format="2">
  <advance width="833"/>
  <unicode hex="0030"/>
  <outline>
    <contour>
      <point x="70.0" y="402.0" type="line" smooth="yes"/>
      <point x="70" y="188.0"/>
      <point x="248.0" y="-20.0"/>
      <point x="416.0" y="-20.0" type="qcurve" smooth="yes"/>
      <point x="584.0" y="-20.0"/>
      <point x="763.0" y="188.0"/>
      <point x="763.0" y="402.0" type="qcurve" smooth="yes"/>
      <point x="763.0" y="1057.0" type="line" smooth="yes"/>
      <point x="763.0" y="1265.0"/>
      <point x="584.0" y="1476"/>
      <point x="416.0" y="1476" type="qcurve" smooth="yes"/>
      <point x="248.0" y="1476"/>
      <point x="70" y="1265.0"/>
      <point x="70.0" y="1057.0" type="qcurve" smooth="yes"/>
    </contour>
    <contour>
      <point x="80.0" y="415.0" type="qcurve" smooth="yes"/>
      <point x="80.0" y="1044.0" type="line" smooth="yes"/>
      <point x="80" y="1260.0"/>
      <point x="255.0" y="1467.0"/>
      <point x="416.0" y="1467" type="qcurve" smooth="yes"/>
      <point x="577" y="1467"/>
      <point x="753.0" y="1260.0"/>
      <point x="753.0" y="1044.0" type="qcurve" smooth="yes"/>
      <point x="753.0" y="415.0" type="line" smooth="yes"/>
      <point x="753.0" y="195.0"/>
      <point x="578" y="-10"/>
      <point x="416.0" y="-10" type="qcurve" smooth="yes"/>
      <point x="254.0" y="-10"/>
      <point x="80" y="193.0"/>
    </contour>
  </outline>
</glyph>
<glyph name="three" format="2">
  <advance width="833"/>
  <unicode hex="0033"/>
  <outline>
    <contour>
      <point x="70" y="375" type="line" smooth="yes"/>
      <point x="70" y="173"/>
      <point x="247" y="-20"/>
      <point x="414" y="-20" type="qcurve" smooth="yes"/>
      <point x="590" y="-20"/>
      <point x="761" y="199"/>
      <point x="761" y="388" type="qcurve" smooth="yes"/>
      <point x="761" y="575"/>
      <point x="550" y="755"/>
      <point x="421" y="759" type="qcurve"/>
      <point x="421" y="761" type="line"/>
      <point x="550" y="772"/>
      <point x="712" y="947"/>
      <point x="712" y="1108" type="qcurve" smooth="yes"/>
      <point x="712" y="1293"/>
      <point x="564" y="1476"/>
      <point x="414" y="1476" type="qcurve" smooth="yes"/>
      <point x="264" y="1476"/>
      <point x="107" y="1286"/>
      <point x="107" y="1105" type="qcurve" smooth="yes"/>
      <point x="107" y="1085" type="line"/>
      <point x="116" y="1085" type="line"/>
      <point x="116" y="1105" type="line" smooth="yes"/>
      <point x="116" y="1280"/>
      <point x="269" y="1466"/>
      <point x="414" y="1466" type="qcurve" smooth="yes"/>
      <point x="558" y="1466"/>
      <point x="702" y="1290"/>
      <point x="702" y="1109" type="qcurve" smooth="yes"/>
      <point x="702" y="936"/>
      <point x="510" y="764"/>
      <point x="368" y="764" type="qcurve" smooth="yes"/>
      <point x="244" y="764" type="line"/>
      <point x="244" y="754" type="line"/>
      <point x="376" y="754" type="line" smooth="yes"/>
      <point x="535" y="754"/>
      <point x="751" y="571"/>
      <point x="751" y="391" type="qcurve" smooth="yes"/>
      <point x="751" y="204"/>
      <point x="583" y="-10"/>
      <point x="414" y="-10" type="qcurve" smooth="yes"/>
      <point x="251" y="-10"/>
      <point x="78" y="184"/>
      <point x="78" y="375" type="qcurve" smooth="yes"/>
      <point x="78" y="395" type="line"/>
      <point x="70" y="395" type="line"/>
    </contour>
  </outline>
</glyph>
<glyph name="five" format="2">
  <advance width="833"/>
  <unicode hex="0035"/>
  <outline>
    <contour>
      <point x="70" y="370" type="line" smooth="yes"/>
      <point x="70" y="188.0"/>
      <point x="248" y="-20"/>
      <point x="412" y="-20" type="qcurve" smooth="yes"/>
      <point x="584" y="-20"/>
      <point x="763" y="188"/>
      <point x="763" y="465" type="qcurve" smooth="yes"/>
      <point x="763" y="679"/>
      <point x="589" y="893"/>
      <point x="457" y="893" type="qcurve" smooth="yes"/>
      <point x="333" y="893"/>
      <point x="170" y="797"/>
      <point x="133" y="739" type="qcurve"/>
      <point x="202" y="1446" type="line"/>
      <point x="701" y="1446" type="line"/>
      <point x="701" y="1456" type="line"/>
      <point x="193" y="1456" type="line"/>
      <point x="121" y="717" type="line"/>
      <point x="126" y="715" type="line"/>
      <point x="183" y="799"/>
      <point x="348" y="883"/>
      <point x="448" y="883" type="qcurve" smooth="yes"/>
      <point x="585" y="883"/>
      <point x="753" y="677"/>
      <point x="753" y="465" type="qcurve" smooth="yes"/>
      <point x="753" y="195"/>
      <point x="578" y="-10"/>
      <point x="412" y="-10" type="qcurve" smooth="yes"/>
      <point x="254" y="-10"/>
      <point x="80" y="193"/>
      <point x="80" y="370" type="qcurve" smooth="yes"/>
      <point x="80" y="390" type="line"/>
      <point x="70" y="390" type="line"/>
    </contour>
  </outline>
</glyph>
<glyph name="six" format="2">
  <advance width="833"/>
  <unicode hex="0036"/>
  <outline>
    <contour>
      <point x="70" y="614" type="line" smooth="yes"/>
      <point x="70" y="280.0"/>
      <point x="256" y="-20"/>
      <point x="420" y="-20" type="qcurve" smooth="yes"/>
      <point x="579" y="-20"/>
      <point x="763" y="193"/>
      <point x="763" y="455" type="qcurve" smooth="yes"/>
      <point x="763" y="669"/>
      <point x="595" y="872"/>
      <point x="451" y="872.0" type="qcurve" smooth="yes"/>
      <point x="284" y="872.0"/>
      <point x="77.0" y="611.0"/>
      <point x="77" y="460" type="qcurve"/>
      <point x="85" y="460" type="line"/>
      <point x="85.0" y="602.0"/>
      <point x="286" y="862"/>
      <point x="446" y="862" type="qcurve" smooth="yes"/>
      <point x="589.0" y="862.0"/>
      <point x="753" y="662"/>
      <point x="753" y="455" type="qcurve" smooth="yes"/>
      <point x="753" y="200"/>
      <point x="573" y="-10"/>
      <point x="425" y="-10" type="qcurve" smooth="yes"/>
      <point x="263" y="-10"/>
      <point x="80" y="286.0"/>
      <point x="80" y="614" type="qcurve" smooth="yes"/>
      <point x="80" y="634" type="line" smooth="yes"/>
      <point x="80" y="1051"/>
      <point x="326.0" y="1466.0"/>
      <point x="590" y="1466" type="qcurve" smooth="yes"/>
      <point x="609" y="1466" type="line"/>
      <point x="609" y="1476" type="line"/>
      <point x="590" y="1476" type="line" smooth="yes"/>
      <point x="319" y="1476.0"/>
      <point x="70" y="1059.0"/>
      <point x="70" y="644" type="qcurve" smooth="yes"/>
    </contour>
  </outline>
</glyph>
<glyph name="seven" format="2">
  <advance width="833"/>
  <unicode hex="0037"/>
  <outline>
    <contour>
      <point x="258" y="0" type="line"/>
      <point x="269" y="0" type="line"/>
      <point x="747" y="1449" type="line"/>
      <point x="747" y="1456" type="line"/>
      <point x="100" y="1456" type="line"/>
      <point x="100" y="1447" type="line"/>
      <point x="736" y="1447" type="line"/>
    </contour>
  </outline>
</glyph>
<glyph name="nine" format="2">
  <advance width="833"/>
  <unicode hex="0039"/>
  <outline>
    <contour>
      <point x="70" y="1001" type="qcurve" smooth="yes"/>
      <point x="70" y="787"/>
      <point x="238" y="584"/>
      <point x="382" y="584" type="qcurve" smooth="yes"/>
      <point x="549" y="584"/>
      <point x="756" y="845"/>
      <point x="756" y="996" type="qcurve"/>
      <point x="748" y="996" type="line"/>
      <point x="748" y="854"/>
      <point x="547" y="594"/>
      <point x="387" y="594" type="qcurve" smooth="yes"/>
      <point x="244" y="594"/>
      <point x="80" y="794"/>
      <point x="80" y="1001" type="qcurve" smooth="yes"/>
      <point x="80" y="1256"/>
      <point x="260" y="1466"/>
      <point x="408" y="1466" type="qcurve" smooth="yes"/>
      <point x="570" y="1466"/>
      <point x="753" y="1170"/>
      <point x="753" y="842" type="qcurve" smooth="yes"/>
      <point x="753" y="822" type="line" smooth="yes"/>
      <point x="753" y="405"/>
      <point x="507.0" y="-10.0"/>
      <point x="243" y="-10" type="qcurve" smooth="yes"/>
      <point x="224" y="-10" type="line"/>
      <point x="224" y="-20" type="line"/>
      <point x="243" y="-20" type="line" smooth="yes"/>
      <point x="514" y="-20"/>
      <point x="763" y="397"/>
      <point x="763" y="812" type="qcurve" smooth="yes"/>
      <point x="763" y="842" type="line" smooth="yes"/>
      <point x="763" y="1176"/>
      <point x="577" y="1476"/>
      <point x="413" y="1476" type="qcurve" smooth="yes"/>
      <point x="254" y="1476"/>
      <point x="70" y="1263"/>
    </contour>
  </outline>
</glyph>
<glyph name="B" format="2">
  <advance width="986"/>
  <unicode hex="0042"/>
  <outline>
    <contour>
      <point x="150" y="0" type="line"/>
      <point x="537" y="0" type="line" smooth="yes"/>
      <point x="738.0" y="0.0"/>
      <point x="926" y="207"/>
      <point x="926.0" y="385" type="qcurve" smooth="yes"/>
      <point x="926" y="567"/>
      <point x="744" y="757"/>
      <point x="603" y="762" type="qcurve"/>
      <point x="603" y="763" type="line"/>
      <point x="736" y="771"/>
      <point x="887" y="952"/>
      <point x="887" y="1111" type="qcurve" smooth="yes"/>
      <point x="887" y="1299"/>
      <point x="685.0" y="1456.0"/>
      <point x="505" y="1456" type="qcurve" smooth="yes"/>
      <point x="150" y="1456" type="line"/>
    </contour>
    <contour>
      <point x="160" y="10.0" type="line"/>
      <point x="160" y="757.0" type="line"/>
      <point x="542" y="757.0" type="line" smooth="yes"/>
      <point x="732.0" y="757.0"/>
      <point x="916" y="556.0"/>
      <point x="916.0" y="384" type="qcurve" smooth="yes"/>
      <point x="916" y="209"/>
      <point x="731.0" y="10.0"/>
      <point x="542" y="10.0" type="qcurve" smooth="yes"/>
    </contour>
    <contour>
      <point x="160.0" y="767" type="line"/>
      <point x="160.0" y="1446" type="line"/>
      <point x="505.0" y="1446.0" type="line" smooth="yes"/>
      <point x="679.0" y="1446.0"/>
      <point x="875" y="1294"/>
      <point x="875" y="1111.0" type="qcurve" smooth="yes"/>
      <point x="875" y="961"/>
      <point x="721.0" y="767.0"/>
      <point x="531" y="767" type="qcurve" smooth="yes"/>
    </contour>
  </outline>
</glyph>
<glyph name="D" format="2">
  <advance width="1100"/>
  <unicode hex="0044"/>
  <outline>
    <contour>
      <point x="150" y="0" type="line"/>
      <point x="450" y="0" type="line" smooth="yes"/>
      <point x="682.0" y="0.0"/>
      <point x="1007.0" y="373.0"/>
      <point x="1007" y="719" type="qcurve" smooth="yes"/>
      <point x="1007.0" y="732" type="line" smooth="yes"/>
      <point x="1007" y="1053"/>
      <point x="717.0" y="1456.0"/>
      <point x="450" y="1456" type="qcurve" smooth="yes"/>
      <point x="150" y="1456" type="line"/>
    </contour>
    <contour>
      <point x="160" y="10" type="line"/>
      <point x="160" y="1446" type="line"/>
      <point x="450" y="1446" type="line" smooth="yes"/>
      <point x="710.0" y="1446.0"/>
      <point x="997" y="1046"/>
      <point x="997.0" y="741" type="qcurve" smooth="yes"/>
      <point x="997.0" y="712" type="line" smooth="yes"/>
      <point x="997.0" y="378.0"/>
      <point x="675.0" y="10.0"/>
      <point x="450" y="10" type="qcurve" smooth="yes"/>
    </contour>
  </outline>
</glyph>
<glyph name="E" format="2">
  <advance width="862"/>
  <unicode hex="0045"/>
  <outline>
    <contour>
      <point x="150" y="0" type="line"/>
      <point x="856" y="0" type="line"/>
      <point x="856" y="10" type="line"/>
      <point x="160" y="10" type="line"/>
      <point x="160" y="749" type="line"/>
      <point x="748" y="749" type="line"/>
      <point x="748" y="759" type="line"/>
      <point x="160" y="759" type="line"/>
      <point x="160" y="1446" type="line"/>
      <point x="846" y="1446" type="line"/>
      <point x="846" y="1456" type="line"/>
      <point x="150" y="1456" type="line"/>
    </contour>
  </outline>
</glyph>
<glyph name="M" format="2">
  <advance width="1377"/>
  <unicode hex="004D"/>
  <outline>
    <contour>
      <point x="150" y="0" type="line"/>
      <point x="160" y="0" type="line"/>
      <point x="160" y="1286" type="line" smooth="yes"/>
      <point x="160" y="1320"/>
      <point x="161" y="1407"/>
      <point x="160" y="1438" type="qcurve"/>
      <point x="161" y="1438" type="line"/>
      <point x="170" y="1409"/>
      <point x="203" y="1320"/>
      <point x="215" y="1286" type="qcurve" smooth="yes"/>
      <point x="673" y="0" type="line"/>
      <point x="682" y="0" type="line"/>
      <point x="1158" y="1286" type="line" smooth="yes"/>
      <point x="1171" y="1321"/>
      <point x="1204" y="1411"/>
      <point x="1215" y="1443" type="qcurve"/>
      <point x="1217" y="1443" type="line"/>
      <point x="1217" y="1409"/>
      <point x="1217" y="1320"/>
      <point x="1217" y="1286" type="qcurve" smooth="yes"/>
      <point x="1217" y="0" type="line"/>
      <point x="1227" y="0" type="line"/>
      <point x="1227" y="1456" type="line"/>
      <point x="1209" y="1456" type="line"/>
      <point x="726" y="144" type="line" smooth="yes"/>
      <point x="714" y="110"/>
      <point x="694" y="57"/>
      <point x="679" y="21" type="qcurve"/>
      <point x="675" y="21" type="line"/>
      <point x="662" y="58"/>
      <point x="644" y="110"/>
      <point x="632" y="144" type="qcurve" smooth="yes"/>
      <point x="166" y="1456" type="line"/>
      <point x="150" y="1456" type="line"/>
    </contour>
  </outline>
</glyph>
<glyph name="O" format="2">
  <advance width="1178"/>
  <unicode hex="004F"/>
  <outline>
    <contour>
      <point x="92" y="720" type="line" smooth="yes"/>
      <point x="92" y="310"/>
      <point x="364" y="-20"/>
      <point x="589" y="-20" type="qcurve" smooth="yes"/>
      <point x="815" y="-20"/>
      <point x="1086" y="310"/>
      <point x="1086" y="720" type="qcurve" smooth="yes"/>
      <point x="1086" y="752" type="line" smooth="yes"/>
      <point x="1086" y="1142"/>
      <point x="815" y="1476"/>
      <point x="589" y="1476" type="qcurve" smooth="yes"/>
      <point x="364" y="1476"/>
      <point x="92" y="1142"/>
      <point x="92" y="752" type="qcurve" smooth="yes"/>
    </contour>
    <contour>
      <point x="102" y="702" type="qcurve" smooth="yes"/>
      <point x="102" y="770" type="line" smooth="yes"/>
      <point x="102" y="1138"/>
      <point x="367" y="1467"/>
      <point x="589" y="1467" type="qcurve" smooth="yes"/>
      <point x="812" y="1467"/>
      <point x="1076" y="1138"/>
      <point x="1076" y="770" type="qcurve" smooth="yes"/>
      <point x="1076" y="704" type="line" smooth="yes"/>
      <point x="1076" y="314"/>
      <point x="813" y="-10"/>
      <point x="588" y="-10" type="qcurve" smooth="yes"/>
      <point x="367" y="-10"/>
      <point x="102" y="315"/>
    </contour>
  </outline>
</glyph>
<glyph name="P" format="2">
  <advance width="941"/>
  <unicode hex="0050"/>
  <outline>
    <contour>
      <point x="150" y="0" type="line"/>
      <point x="160" y="0" type="line"/>
      <point x="160" y="650" type="line"/>
      <point x="497" y="650" type="line" smooth="yes"/>
      <point x="697" y="650"/>
      <point x="892" y="878"/>
      <point x="892" y="1054" type="qcurve" smooth="yes"/>
      <point x="892" y="1230"/>
      <point x="697" y="1456"/>
      <point x="497" y="1456" type="qcurve" smooth="yes"/>
      <point x="150" y="1456" type="line"/>
    </contour>
    <contour>
      <point x="160" y="660" type="line"/>
      <point x="160" y="1446" type="line"/>
      <point x="487" y="1446" type="line" smooth="yes"/>
      <point x="693" y="1446"/>
      <point x="882" y="1223"/>
      <point x="882" y="1053" type="qcurve" smooth="yes"/>
      <point x="882" y="884"/>
      <point x="692" y="660"/>
      <point x="485" y="660" type="qcurve" smooth="yes"/>
    </contour>
  </outline>
</glyph>
<glyph name="S" format="2">
  <advance width="892"/>
  <unicode hex="0053"/>
  <outline>
    <contour>
      <point x="34" y="347" type="line" smooth="yes"/>
      <point x="34" y="175"/>
      <point x="260" y="-20"/>
      <point x="449" y="-20" type="qcurve" smooth="yes"/>
      <point x="637" y="-20"/>
      <point x="858" y="177"/>
      <point x="858" y="338" type="qcurve" smooth="yes"/>
      <point x="858" y="498"/>
      <point x="684" y="684"/>
      <point x="460" y="765" type="qcurve" smooth="yes"/>
      <point x="236" y="846"/>
      <point x="62" y="1010"/>
      <point x="62" y="1159" type="qcurve" smooth="yes"/>
      <point x="62" y="1308"/>
      <point x="252" y="1466"/>
      <point x="446" y="1466" type="qcurve" smooth="yes"/>
      <point x="649" y="1466"/>
      <point x="822" y="1259"/>
      <point x="822" y="1133" type="qcurve" smooth="yes"/>
      <point x="822" y="1065" type="line"/>
      <point x="832" y="1065" type="line"/>
      <point x="832" y="1135" type="line" smooth="yes"/>
      <point x="832" y="1263"/>
      <point x="650" y="1476"/>
      <point x="445" y="1476" type="qcurve" smooth="yes"/>
      <point x="252" y="1476"/>
      <point x="51" y="1313"/>
      <point x="51" y="1159" type="qcurve" smooth="yes"/>
      <point x="51" y="1006"/>
      <point x="231" y="837"/>
      <point x="456" y="755" type="qcurve" smooth="yes"/>
      <point x="681" y="673"/>
      <point x="848" y="494"/>
      <point x="848" y="337" type="qcurve" smooth="yes"/>
      <point x="848" y="182"/>
      <point x="634" y="-10"/>
      <point x="451" y="-10" type="qcurve" smooth="yes"/>
      <point x="264" y="-10"/>
      <point x="44" y="184"/>
      <point x="44" y="359" type="qcurve" smooth="yes"/>
      <point x="44" y="427" type="line"/>
      <point x="34" y="427" type="line"/>
    </contour>
  </outline>
</glyph>
<glyph name="V" format="2">
  <advance width="980"/>
  <unicode hex="0056"/>
  <outline>
    <contour>
      <point x="0" y="1456" type="line"/>
      <point x="487" y="-9" type="line"/>
      <point x="497" y="-9" type="line"/>
      <point x="980" y="1456" type="line"/>
      <point x="970" y="1456" type="line"/>
      <point x="529" y="124" type="line" smooth="yes"/>
      <point x="522" y="103"/>
      <point x="500" y="35"/>
      <point x="493" y="11" type="qcurve"/>
      <point x="491" y="11" type="line"/>
      <point x="483" y="35"/>
      <point x="460" y="104"/>
      <point x="453" y="124" type="qcurve" smooth="yes"/>
      <point x="10" y="1456" type="line"/>
    </contour>
  </outline>
</glyph>
<glyph name="b" format="2">
  <advance width="910"/>
  <unicode hex="0062"/>
  <outline>
    <contour>
      <point x="123" y="0" type="line"/>
      <point x="133" y="0" type="line"/>
      <point x="133" y="161" type="line"/>
      <point x="133" y="161" type="line"/>
      <point x="167" y="95"/>
      <point x="342" y="-20"/>
      <point x="469" y="-20" type="qcurve" smooth="yes"/>
      <point x="643" y="-20"/>
      <point x="850" y="233"/>
      <point x="850" y="458" type="qcurve" smooth="yes"/>
      <point x="850" y="473" type="line" smooth="yes"/>
      <point x="850" y="689"/>
      <point x="644" y="934"/>
      <point x="475" y="934" type="qcurve"/>
      <point x="350" y="934"/>
      <point x="172" y="824"/>
      <point x="133" y="757" type="qcurve"/>
      <point x="133" y="1458" type="line"/>
      <point x="123" y="1458" type="line"/>
    </contour>
    <contour>
      <point x="133" y="178" type="qcurve"/>
      <point x="133" y="742" type="line"/>
      <point x="173" y="813"/>
      <point x="351" y="923"/>
      <point x="476" y="923" type="qcurve" smooth="yes"/>
      <point x="642" y="923"/>
      <point x="840" y="683"/>
      <point x="840" y="479" type="qcurve" smooth="yes"/>
      <point x="840" y="452" type="line" smooth="yes"/>
      <point x="840.0" y="235.0"/>
      <point x="638" y="-10"/>
      <point x="469" y="-10" type="qcurve" smooth="yes"/>
      <point x="345" y="-10"/>
      <point x="173" y="103"/>
    </contour>
  </outline>
</glyph>
<glyph name="d" format="2">
  <advance width="910"/>
  <unicode hex="0064"/>
  <outline>
    <contour>
      <point x="60" y="458" type="line" smooth="yes"/>
      <point x="60" y="241"/>
      <point x="267" y="-10"/>
      <point x="441" y="-10" type="qcurve" smooth="yes"/>
      <point x="564" y="-10"/>
      <point x="740" y="104"/>
      <point x="776" y="170" type="qcurve"/>
      <point x="777" y="170" type="line"/>
      <point x="777" y="0" type="line"/>
      <point x="787" y="0" type="line"/>
      <point x="787" y="1458" type="line"/>
      <point x="777" y="1458" type="line"/>
      <point x="777" y="756" type="line"/>
      <point x="738" y="824"/>
      <point x="560" y="934"/>
      <point x="435" y="934" type="qcurve" smooth="yes"/>
      <point x="265" y="934"/>
      <point x="60" y="688"/>
      <point x="60" y="474" type="qcurve" smooth="yes"/>
    </contour>
    <contour>
      <point x="70" y="451" type="qcurve" smooth="yes"/>
      <point x="70" y="479" type="line" smooth="yes"/>
      <point x="70" y="683"/>
      <point x="268" y="923"/>
      <point x="434" y="923" type="qcurve" smooth="yes"/>
      <point x="559" y="923"/>
      <point x="737" y="813"/>
      <point x="777" y="742" type="qcurve"/>
      <point x="777" y="188" type="line"/>
      <point x="737" y="113"/>
      <point x="565" y="0"/>
      <point x="441" y="0" type="qcurve" smooth="yes"/>
      <point x="272" y="0"/>
      <point x="70" y="245"/>
    </contour>
  </outline>
</glyph>
<glyph name="f" format="2">
  <advance width="372"/>
  <unicode hex="0066"/>
  <outline>
    <contour>
      <point x="164" y="0" type="line"/>
      <point x="174" y="0" type="line"/>
      <point x="174" y="908" type="line"/>
      <point x="174" y="911" type="line"/>
      <point x="174" y="1139" type="line" smooth="yes"/>
      <point x="174" y="1317"/>
      <point x="312" y="1469"/>
      <point x="441" y="1469" type="qcurve" smooth="yes"/>
      <point x="467" y="1469"/>
      <point x="524" y="1459"/>
      <point x="535" y="1455" type="qcurve"/>
      <point x="538" y="1465" type="line"/>
      <point x="525" y="1469"/>
      <point x="470" y="1478"/>
      <point x="442" y="1478" type="qcurve" smooth="yes"/>
      <point x="308" y="1478"/>
      <point x="164" y="1324"/>
      <point x="164" y="1149" type="qcurve" smooth="yes"/>
    </contour>
    <contour>
      <point x="7" y="904" type="line"/>
      <point x="415" y="904" type="line"/>
      <point x="415" y="914" type="line"/>
      <point x="171" y="914" type="line"/>
      <point x="168" y="914" type="line"/>
      <point x="7" y="914" type="line"/>
    </contour>
  </outline>
</glyph>
<glyph name="g" format="2">
  <advance width="910"/>
  <unicode hex="0067"/>
  <outline>
    <contour>
      <point x="103" y="-319.0" type="line"/>
      <point x="158" y="-367.0"/>
      <point x="317" y="-426.0"/>
      <point x="420" y="-426.0" type="qcurve" smooth="yes"/>
      <point x="592" y="-426"/>
      <point x="787" y="-199.0"/>
      <point x="787" y="30.0" type="qcurve" smooth="yes"/>
      <point x="787" y="914.0" type="line"/>
      <point x="777" y="914.0" type="line"/>
      <point x="777.0" y="756" type="line"/>
      <point x="776.0" y="756" type="line"/>
      <point x="738.0" y="824"/>
      <point x="560" y="934"/>
      <point x="435" y="934.0" type="qcurve" smooth="yes"/>
      <point x="265" y="934.0"/>
      <point x="60" y="688"/>
      <point x="60" y="473" type="qcurve" smooth="yes"/>
      <point x="60" y="458" type="line" smooth="yes"/>
      <point x="60" y="232"/>
      <point x="267" y="-20"/>
      <point x="441" y="-20" type="qcurve" smooth="yes"/>
      <point x="568" y="-20"/>
      <point x="743" y="94.0"/>
      <point x="777" y="160.0" type="qcurve"/>
      <point x="777" y="30.0" type="line" smooth="yes"/>
      <point x="777.0" y="-184.0"/>
      <point x="590" y="-416"/>
      <point x="420" y="-416" type="qcurve" smooth="yes"/>
      <point x="326" y="-416"/>
      <point x="159" y="-355"/>
      <point x="111" y="-309" type="qcurve"/>
    </contour>
    <contour>
      <point x="70.0" y="451" type="qcurve" smooth="yes"/>
      <point x="70" y="479" type="line" smooth="yes"/>
      <point x="70" y="683"/>
      <point x="268" y="923"/>
      <point x="434" y="923" type="qcurve" smooth="yes"/>
      <point x="559" y="923"/>
      <point x="737" y="813"/>
      <point x="777" y="742" type="qcurve"/>
      <point x="777.0" y="178" type="line"/>
      <point x="737.0" y="103"/>
      <point x="565" y="-10"/>
      <point x="441.0" y="-10" type="qcurve" smooth="yes"/>
      <point x="272" y="-10"/>
      <point x="70" y="235"/>
    </contour>
  </outline>
</glyph>
<glyph name="j" format="2">
  <advance width="278"/>
  <unicode hex="006A"/>
  <outline>
    <contour>
      <point x="-100" y="-418" type="line"/>
      <point x="-88" y="-423"/>
      <point x="-41" y="-436"/>
      <point x="-10" y="-436" type="qcurve" smooth="yes"/>
      <point x="71" y="-436"/>
      <point x="156" y="-319"/>
      <point x="156" y="-210" type="qcurve" smooth="yes"/>
      <point x="156" y="914" type="line"/>
      <point x="146" y="914" type="line"/>
      <point x="146" y="-200" type="line" smooth="yes"/>
      <point x="146" y="-312"/>
      <point x="68" y="-426"/>
      <point x="-10" y="-426" type="qcurve" smooth="yes"/>
      <point x="-39" y="-426"/>
      <point x="-86" y="-413"/>
      <point x="-100" y="-406" type="qcurve"/>
    </contour>
    <contour>
      <point x="132" y="1262" type="qcurve" smooth="yes"/>
      <point x="132" y="1253"/>
      <point x="142" y="1242"/>
      <point x="152" y="1242" type="qcurve" smooth="yes"/>
      <point x="162" y="1242"/>
      <point x="173" y="1253"/>
      <point x="173" y="1262" type="qcurve" smooth="yes"/>
      <point x="173" y="1270"/>
      <point x="163" y="1281"/>
      <point x="153" y="1281" type="qcurve" smooth="yes"/>
      <point x="143" y="1281"/>
      <point x="132" y="1270"/>
    </contour>
  </outline>
</glyph>
<glyph name="r" format="2">
  <advance width="543"/>
  <unicode hex="0072"/>
  <outline>
    <contour>
      <point x="123" y="0" type="line"/>
      <point x="134.0" y="0.0" type="line"/>
      <point x="134.0" y="722" type="line"/>
      <point x="176.0" y="812"/>
      <point x="333" y="924"/>
      <point x="421" y="924.0" type="qcurve" smooth="yes"/>
      <point x="453" y="924.0"/>
      <point x="509.0" y="912"/>
      <point x="524.0" y="907" type="qcurve"/>
      <point x="524.0" y="917" type="line"/>
      <point x="513" y="922"/>
      <point x="456" y="934"/>
      <point x="421" y="934.0" type="qcurve" smooth="yes"/>
      <point x="328" y="934"/>
      <point x="172.0" y="818"/>
      <point x="134.0" y="740" type="qcurve"/>
      <point x="133.0" y="740" type="line"/>
      <point x="133" y="914.0" type="line"/>
      <point x="123" y="914" type="line"/>
    </contour>
  </outline>
</glyph>
<glyph name="t" format="2">
  <advance width="494"/>
  <unicode hex="0074"/>
  <outline>
    <contour>
      <point x="4" y="904" type="line"/>
      <point x="470" y="904" type="line"/>
      <point x="470" y="914" type="line"/>
      <point x="4" y="914" type="line"/>
    </contour>
    <contour>
      <point x="167" y="252" type="line" smooth="yes"/>
      <point x="167" y="91"/>
      <point x="275" y="-20"/>
      <point x="362" y="-20" type="qcurve" smooth="yes"/>
      <point x="404" y="-20"/>
      <point x="459" y="-10"/>
      <point x="469" y="-6" type="qcurve"/>
      <point x="469" y="4" type="line"/>
      <point x="458" y="0"/>
      <point x="402" y="-10"/>
      <point x="361" y="-10" type="qcurve" smooth="yes"/>
      <point x="280" y="-10"/>
      <point x="178" y="95"/>
      <point x="178" y="232" type="qcurve" smooth="yes"/>
      <point x="178" y="1322" type="line"/>
      <point x="167" y="1322" type="line"/>
      <point x="167" y="911" type="line"/>
      <point x="167" y="906" type="line"/>
    </contour>
  </outline>
</glyph>
<glyph name="x" format="2">
  <advance width="700"/>
  <unicode hex="0078"/>
  <outline>
    <contour>
      <point x="24" y="0" type="line"/>
      <point x="39" y="0" type="line"/>
      <point x="355" y="462" type="line"/>
      <point x="356" y="464" type="line"/>
      <point x="664" y="914" type="line"/>
      <point x="649" y="914" type="line"/>
      <point x="348" y="474" type="line"/>
      <point x="346" y="472" type="line"/>
    </contour>
    <contour>
      <point x="43" y="914" type="line"/>
      <point x="348" y="464" type="line"/>
      <point x="349" y="462" type="line"/>
      <point x="662" y="0" type="line"/>
      <point x="676" y="0" type="line"/>
      <point x="356" y="472" type="line"/>
      <point x="355" y="474" type="line"/>
      <point x="57" y="914" type="line"/>
    </contour>
  </outline>
</glyph>
<glyph name="braceleft" format="2">
  <advance width="610"/>
  <unicode hex="007B"/>
  <outline>
    <contour>
      <point x="530" y="-312" type="qcurve"/>
      <point x="530" y="-304" type="line"/>
      <point x="353" y="-304"/>
      <point x="247" y="-75"/>
      <point x="291" y="122" type="qcurve" smooth="yes"/>
      <point x="338" y="334" type="line" smooth="yes"/>
      <point x="362" y="442"/>
      <point x="238" y="566"/>
      <point x="129" y="574" type="qcurve"/>
      <point x="238" y="582"/>
      <point x="362" y="706"/>
      <point x="338" y="814" type="qcurve" smooth="yes"/>
      <point x="291" y="1026" type="line" smooth="yes"/>
      <point x="247" y="1223"/>
      <point x="353" y="1452"/>
      <point x="530" y="1452" type="qcurve"/>
      <point x="530" y="1460" type="line"/>
      <point x="346" y="1460"/>
      <point x="238" y="1223"/>
      <point x="281" y="1031" type="qcurve" smooth="yes"/>
      <point x="328" y="819" type="line" smooth="yes"/>
      <point x="355" y="699"/>
      <point x="211" y="578"/>
      <point x="90" y="578" type="qcurve"/>
      <point x="90" y="570" type="line"/>
      <point x="211" y="570"/>
      <point x="355" y="449"/>
      <point x="328" y="329" type="qcurve" smooth="yes"/>
      <point x="281" y="117" type="line" smooth="yes"/>
      <point x="238" y="-75"/>
      <point x="346" y="-312"/>
    </contour>
  </outline>
</glyph>
<glyph name="questiondown" format="2">
  <advance width="823"/>
  <unicode hex="00BF"/>
  <outline>
    <contour>
      <point x="110" y="37" type="qcurve" smooth="yes"/>
      <point x="110" y="-110"/>
      <point x="277" y="-300"/>
      <point x="426" y="-300" type="qcurve" smooth="yes"/>
      <point x="575" y="-300"/>
      <point x="747" y="-103"/>
      <point x="747" y="68" type="qcurve" smooth="yes"/>
      <point x="747" y="90" type="line"/>
      <point x="635" y="90" type="line"/>
      <point x="635" y="68" type="line" smooth="yes"/>
      <point x="635" y="-63.4406779661017"/>
      <point x="527.9856459330144" y="-207.0"/>
      <point x="424" y="-207" type="qcurve" smooth="yes"/>
      <point x="323.0049261083743" y="-207.0"/>
      <point x="223.0" y="-71.13636363636364"/>
      <point x="223" y="37" type="qcurve" smooth="yes"/>
      <point x="223.0" y="149.375"/>
      <point x="286.61463619481475" y="290.84234129921174"/>
      <point x="363" y="378" type="qcurve" smooth="yes"/>
      <point x="443.5684210354992" y="468.7669553437903"/>
      <point x="521" y="636.6270718232045"/>
      <point x="521" y="751" type="qcurve" smooth="yes"/>
      <point x="521" y="761" type="line"/>
      <point x="408" y="761" type="line"/>
      <point x="408" y="751" type="line" smooth="yes"/>
      <point x="408" y="676.186119873817"/>
      <point x="355.96262034319784" y="535.8251362922964"/>
      <point x="274" y="443" type="qcurve" smooth="yes"/>
      <point x="191.1266891136483" y="345.9775872550029"/>
      <point x="110.0" y="180.17380352644835"/>
    </contour>
    <contour>
      <point x="380" y="1110" type="qcurve" smooth="yes"/>
      <point x="380" y="1074"/>
      <point x="423" y="1022"/>
      <point x="463" y="1022" type="qcurve" smooth="yes"/>
      <point x="502" y="1022"/>
      <point x="544" y="1074"/>
      <point x="544" y="1110" type="qcurve" smooth="yes"/>
      <point x="544" y="1146"/>
      <point x="502" y="1198"/>
      <point x="463" y="1198" type="qcurve" smooth="yes"/>
      <point x="423" y="1198"/>
      <point x="380" y="1146"/>
    </contour>
  </outline>
</glyph>
<glyph name="Germandbls" format="2">
  <advance width="1058"/>
  <unicode hex="1E9E"/>
  <outline>
    <contour>
      <point x="130" y="0" type="line"/>
      <point x="240" y="0" type="line"/>
      <point x="240" y="1028" type="line" smooth="yes"/>
      <point x="240" y="1212.7945205479452"/>
      <point x="396.0" y="1383.0"/>
      <point x="528" y="1383" type="qcurve" smooth="yes"/>
      <point x="660.0" y="1383.0"/>
      <point x="794.0" y="1235.0662251655629"/>
      <point x="794" y="1091" type="qcurve"/>
      <point x="504" y="768" type="line"/>
      <point x="528" y="693" type="line"/>
      <point x="714.1569747107186" y="663.9755254483288"/>
      <point x="894" y="514.986013986014"/>
      <point x="894" y="397" type="qcurve" smooth="yes"/>
      <point x="894" y="367" type="line" smooth="yes"/>
      <point x="894" y="222.9337748344371"/>
      <point x="708.0" y="75.0"/>
      <point x="567" y="75" type="qcurve" smooth="yes"/>
      <point x="528" y="75"/>
      <point x="438" y="88"/>
      <point x="413" y="93" type="qcurve"/>
      <point x="405" y="-4" type="line"/>
      <point x="436" y="-9"/>
      <point x="532" y="-20"/>
      <point x="576" y="-20" type="qcurve" smooth="yes"/>
      <point x="769" y="-20"/>
      <point x="1006" y="197"/>
      <point x="1006" y="368" type="qcurve" smooth="yes"/>
      <point x="1006" y="397" type="line" smooth="yes"/>
      <point x="1006" y="541.9830508474577"/>
      <point x="796.9094755633578" y="731.6972484835186"/>
      <point x="625" y="761" type="qcurve"/>
      <point x="625" y="766" type="line"/>
      <point x="903" y="1077" type="line"/>
      <point x="903" y="1097" type="line" smooth="yes"/>
      <point x="903" y="1265"/>
      <point x="702" y="1476"/>
      <point x="528" y="1476" type="qcurve" smooth="yes"/>
      <point x="354" y="1476"/>
      <point x="130" y="1254"/>
      <point x="130" y="1028" type="qcurve" smooth="yes"/>
    </contour>
  </outline>
</glyph>
<glyph name="minus" format="2">
  <advance width="1135"/>
  <unicode hex="2212"/>
  <outline>
    <contour>
      <point x="175" y="631" type="line"/>
      <point x="960" y="631" type="line"/>
      <point x="960" y="717" type="line"/>
      <point x="175" y="717" type="line"/>
    </contour>
  </outline>
</glyph>
